<?xml version="1.0" standalone="no"?>
<!DOCTYPE svg PUBLIC "-//W3C//DTD SVG 20010904//EN"
 "http://www.w3.org/TR/2001/REC-SVG-20010904/DTD/svg10.dtd">
<svg version="1.0" xmlns="http://www.w3.org/2000/svg"
 width="213.000000pt" height="216.000000pt" viewBox="0 0 213.000000 216.000000"
 preserveAspectRatio="xMidYMid meet">

<g transform="translate(0.000000,216.000000) scale(0.100000,-0.100000)"
fill="#000000" stroke="none">
<path d="M940 2109 c-409 -47 -759 -344 -874 -743 -14 -48 -26 -99 -26 -112
l0 -24 298 0 297 0 24 53 c32 70 134 170 206 203 122 56 275 56 390 -1 82 -39
170 -125 202 -196 l27 -59 299 0 300 0 -6 45 c-4 25 -18 80 -32 122 -133 394
-468 667 -878 712 -107 12 -119 12 -227 0z"/>
<path d="M972 1307 c-90 -33 -152 -126 -152 -230 0 -98 46 -172 135 -213 165
-78 345 34 345 215 0 101 -47 176 -135 217 -56 26 -137 31 -193 11z"/>
<path d="M40 906 c0 -42 49 -196 90 -282 182 -380 613 -620 1031 -574 431 48
774 334 895 749 13 46 24 94 24 107 l0 24 -298 0 -297 0 -23 -49 c-66 -144
-241 -251 -410 -251 -155 0 -312 96 -384 236 l-33 64 -297 0 -298 0 0 -24z"/>
</g>
</svg>
